<svg width="16" height="16" viewBox="0 0 16 16" fill="none" xmlns="http://www.w3.org/2000/svg">
<g clip-path="url(#clip0_120_522)">
<path d="M13.7672 9.80201C13.6904 9.26841 13.2784 8.85241 12.748 8.72841C10.6864 8.24521 10.1696 7.05801 10.0824 5.74121C9.71683 5.67321 9.06643 5.59961 7.96243 5.59961C6.85843 5.59961 6.20803 5.67321 5.84243 5.74121C5.75523 7.05801 5.23843 8.24521 3.17683 8.72841C2.64643 8.85321 2.23443 9.26841 2.15763 9.80201L1.76003 12.5556C1.62003 13.5252 2.33203 14.3996 3.32243 14.3996H12.6024C13.592 14.3996 14.3048 13.5252 14.1648 12.5556L13.7672 9.80201ZM7.96243 12.3932C6.84643 12.3932 5.94163 11.4972 5.94163 10.3932C5.94163 9.28921 6.84643 8.39321 7.96243 8.39321C9.07843 8.39321 9.98323 9.28921 9.98323 10.3932C9.98323 11.4972 9.07763 12.3932 7.96243 12.3932ZM15.9224 4.79961C15.9032 3.59961 12.8488 1.60041 7.96243 1.59961C3.07523 1.60041 0.0208253 3.59961 0.00242527 4.79961C-0.0159747 5.99961 0.0192253 7.56121 2.03043 7.30121C4.38323 6.99641 4.23843 6.17481 4.23843 5.00041C4.23843 4.18121 6.15203 3.98361 7.96243 3.98361C9.77283 3.98361 11.6856 4.18121 11.6864 5.00041C11.6864 6.17481 11.5416 6.99641 13.8944 7.30121C15.9048 7.56121 15.9408 5.99961 15.9224 4.79961Z" fill="#A5B4FC"/>
</g>
<defs>
<clipPath id="clip0_120_522">
<rect width="16" height="16" fill="white"/>
</clipPath>
</defs>
</svg>
