<svg width="15" height="12" viewBox="0 0 15 12" fill="none" xmlns="http://www.w3.org/2000/svg">
<path d="M4.65012e-09 3.416L7.10267 7.11C7.17391 7.14705 7.25303 7.16639 7.33333 7.16639C7.41364 7.16639 7.49276 7.14705 7.564 7.11L14.6667 3.41667V9.83333C14.6667 10.3868 14.455 10.9192 14.0749 11.3215C13.6948 11.7238 13.1752 11.9653 12.6227 11.9967L12.5 12H2.16667C1.61324 12 1.08078 11.7883 0.678513 11.4082C0.276245 11.0281 0.0346658 10.5085 0.00333341 9.956L4.65012e-09 9.83333V3.416ZM2.16667 4.65013e-09H12.5C13.0534 -3.62312e-05 13.5859 0.211703 13.9882 0.591781C14.3904 0.971859 14.632 1.49146 14.6633 2.044L14.6667 2.16667V2.28933L7.33333 6.10267L4.65012e-09 2.28933V2.16667C-3.62312e-05 1.61324 0.211703 1.08078 0.591781 0.678513C0.97186 0.276245 1.49146 0.0346658 2.044 0.00333341L2.16667 4.65013e-09H12.5H2.16667Z" fill="#EAB308"/>
</svg>
