<svg width="14" height="14" viewBox="0 0 14 14" fill="none" xmlns="http://www.w3.org/2000/svg">
<path fill-rule="evenodd" clip-rule="evenodd" d="M6.63631 10.9763C5.43832 10.9763 4.22122 10.3077 3.5109 9.42265C0.103017 9.42265 0 14.0001 0 14.0001H13.2718C13.2718 14.0001 13.5393 9.40234 9.70689 9.40234C8.9974 10.2983 7.8343 10.9763 6.63631 10.9763Z" fill="#FDBA74"/>
<path fill-rule="evenodd" clip-rule="evenodd" d="M8.78293 4.60244C8.78293 5.58985 7.82431 7.47799 6.64084 7.47799C5.45924 7.47799 4.5 5.58926 4.5 4.60244C4.5 3.61562 5.45861 2.81445 6.64084 2.81445C7.82431 2.81504 8.78293 3.61621 8.78293 4.60244Z" fill="#FDBA74"/>
<path fill-rule="evenodd" clip-rule="evenodd" d="M11.4576 3.3773C11.4576 3.08019 11.0176 2.84043 10.4716 2.83855V2.22646C10.4716 2.13526 10.5086 0 6.4966 0C2.4866 0 2.5236 2.13526 2.5236 2.22646V2.86017C2.5136 2.86017 2.5056 2.85735 2.4966 2.85735C1.9536 2.85735 1.5166 3.09335 1.5166 3.38576V5.97515C1.5166 6.26568 1.9546 6.50262 2.4966 6.50262C3.0386 6.50262 3.4786 6.26568 3.4786 5.97515V3.38576C3.4786 3.34533 3.4516 3.30866 3.4356 3.27105V2.56494C3.4356 2.50007 3.1476 0.888516 6.4966 0.888516C9.8466 0.888516 9.4986 2.50007 9.4986 2.56494V3.30866C9.4926 3.33217 9.4736 3.35285 9.4736 3.3773V6.02592C9.4736 6.32398 9.9166 6.56561 10.4656 6.56561C10.4776 6.56561 10.4866 6.56185 10.4986 6.56185V7.52935H9.5146V8.44137H11.4676L11.4576 3.3773Z" fill="#FDBA74"/>
</svg>
