<svg width="16" height="16" viewBox="0 0 16 16" fill="none" xmlns="http://www.w3.org/2000/svg">
<path d="M15.1844 7.94034C15.1844 11.8866 11.9853 15.0858 8.03897 15.0858C4.09267 15.0858 0.893555 11.8866 0.893555 7.94034C0.893555 3.99403 4.09267 0.794922 8.03897 0.794922C11.9853 0.794922 15.1844 3.99403 15.1844 7.94034Z" fill="white"/>
<g clip-path="url(#clip0_120_524)">
<path d="M9.30627 2.3431C6.18207 1.62182 3.0647 3.56977 2.34343 6.69396C1.62215 9.81816 3.5701 12.9355 6.69429 13.6568C9.81849 14.3781 12.9359 12.4301 13.6571 9.30594C14.3784 6.18174 12.4305 3.06437 9.30627 2.3431ZM6.75458 4.12075C6.87271 4.14079 6.96198 4.23477 7.0133 4.37686L7.44808 6.0221C7.48939 6.2147 7.40015 6.39011 7.25001 6.48624L6.81399 6.7587C6.7852 6.78362 6.76303 6.81404 6.75411 6.85107C6.76856 7.40828 7.06866 7.98848 7.35523 8.40598C7.64179 8.82348 7.92829 9.36531 8.41085 9.58941C8.46951 9.62138 8.54487 9.64538 8.59937 9.61404L9.10769 9.2899C9.27461 9.21502 9.49218 9.21028 9.62353 9.33335L9.63043 9.33494L10.8358 10.4809C11.011 10.6566 10.9749 10.9097 10.7934 11.0268L9.61204 11.7586C9.43649 11.8713 9.23661 11.8768 9.05334 11.8347C8.24862 11.6233 7.57478 11.0488 7.04025 10.4949C6.18135 9.50563 5.44949 8.35559 5.11483 7.09304C4.99578 6.56853 4.86696 5.90462 5.01411 5.38383C5.06214 5.18622 5.16056 5.00448 5.32958 4.90898L6.51272 4.16968C6.60231 4.12325 6.68368 4.10874 6.75458 4.12075Z" fill="#34D399"/>
</g>
<defs>
<clipPath id="clip0_120_524">
<rect width="11.6113" height="11.6113" fill="white" transform="translate(0 6.15234) rotate(-32)"/>
</clipPath>
</defs>
</svg>
