<svg width="15" height="11" viewBox="0 0 15 11" fill="none" xmlns="http://www.w3.org/2000/svg">
<path d="M15 9.25016C15 9.69219 14.8244 10.1161 14.5118 10.4287C14.1993 10.7412 13.7754 10.9168 13.3333 10.9168H1.66667C1.22464 10.9168 0.800716 10.7412 0.488155 10.4287C0.175595 10.1161 0 9.69219 0 9.25016V1.75016C0 1.30814 0.175595 0.884212 0.488155 0.571651C0.800716 0.259091 1.22464 0.0834961 1.66667 0.0834961H13.3333C13.7754 0.0834961 14.1993 0.259091 14.5118 0.571651C14.8244 0.884212 15 1.30814 15 1.75016V9.25016Z" fill="#009B3A"/>
<path d="M13.6366 5.50016L7.49995 10.1352L1.36328 5.50016L7.49995 0.864746L13.6366 5.50016Z" fill="#FEDF01"/>
<path d="M7.48966 8.15901C8.97577 8.15901 10.1805 6.95428 10.1805 5.46818C10.1805 3.98207 8.97577 2.77734 7.48966 2.77734C6.00356 2.77734 4.79883 3.98207 4.79883 5.46818C4.79883 6.95428 6.00356 8.15901 7.48966 8.15901Z" fill="#002776"/>
<path d="M5.11594 4.20268C4.97618 4.46604 4.88154 4.75096 4.83594 5.0456C6.50052 4.92476 8.75969 5.83351 9.72927 6.96018C9.89677 6.70851 10.0209 6.42685 10.0972 6.12518C8.90052 4.95518 6.79844 4.19601 5.11594 4.20268Z" fill="#CBE9D4"/>
<path d="M5 5.59717H5.41667V6.01383H5V5.59717ZM5.41667 6.4305H5.83333V6.84717H5.41667V6.4305Z" fill="#88C9F9"/>
<path d="M6.25 5.59701H6.66667V6.01367H6.25V5.59701ZM7.08333 6.01367H7.5V6.43034H7.08333V6.01367ZM8.75 6.84701H9.16667V7.26367H8.75V6.84701ZM7.5 7.26367H7.91667V7.68034H7.5V7.26367ZM8.75 4.76367H9.16667V5.18034H8.75V4.76367Z" fill="#55ACEE"/>
<path d="M7.91602 6.43066H8.33268V6.84733H7.91602V6.43066Z" fill="#3B88C3"/>
</svg>
