<svg width="14" height="14" viewBox="0 0 14 14" fill="none" xmlns="http://www.w3.org/2000/svg">
<path d="M14 10.4999C14 10.9125 13.8361 11.3081 13.5444 11.5998C13.2527 11.8916 12.857 12.0555 12.4444 12.0555H1.55556C1.143 12.0555 0.747335 11.8916 0.455612 11.5998C0.163888 11.3081 0 10.9125 0 10.4999V3.49989C0 3.08733 0.163888 2.69167 0.455612 2.39995C0.747335 2.10822 1.143 1.94434 1.55556 1.94434H12.4444C12.857 1.94434 13.2527 2.10822 13.5444 2.39995C13.8361 2.69167 14 3.08733 14 3.49989V10.4999Z" fill="#DE2910"/>
<path d="M4.33044 3.49085L4.61666 3.62929L4.84572 3.40918L4.80255 3.72418L5.08255 3.87429L4.76988 3.93029L4.71388 4.24296L4.56377 3.96296L4.24877 4.00612L4.46888 3.77707L4.33044 3.49085ZM6.14461 4.63457L6.00616 4.9204L6.22627 5.14985L5.91166 5.10629L5.76155 5.38668L5.70555 5.07362L5.3925 5.01762L5.67288 4.86751L5.62933 4.5529L5.85877 4.77301L6.14461 4.63457ZM5.77244 6.10418L5.87666 6.4044L6.19438 6.41101L5.94122 6.60274L6.03338 6.90724L5.77244 6.72563L5.5115 6.90724L5.60327 6.60274L5.35011 6.41101L5.66783 6.4044L5.77244 6.10418ZM4.33044 7.37974L4.61666 7.51818L4.84572 7.29807L4.80255 7.61307L5.08255 7.76318L4.76988 7.81918L4.71388 8.13185L4.56377 7.85185L4.24877 7.89502L4.46888 7.66596L4.33044 7.37974ZM2.722 4.25851L3.08327 5.29724L4.18227 5.31979L3.30611 5.98401L3.62461 7.03635L2.722 6.40829L1.81939 7.03635L2.13789 5.98401L1.26172 5.31979L2.36072 5.29724L2.722 4.25851Z" fill="#FFDE02"/>
</svg>
