<svg width="14" height="14" viewBox="0 0 14 14" fill="none" xmlns="http://www.w3.org/2000/svg">
<path d="M14 10.4999C14 10.9125 13.8361 11.3081 13.5444 11.5998C13.2527 11.8916 12.857 12.0554 12.4444 12.0554H1.55556C1.143 12.0554 0.747335 11.8916 0.455612 11.5998C0.163888 11.3081 0 10.9125 0 10.4999V3.49989C0 3.08733 0.163888 2.69167 0.455612 2.39995C0.747335 2.10822 1.143 1.94434 1.55556 1.94434H12.4444C12.857 1.94434 13.2527 2.10822 13.5444 2.39995C13.8361 2.69167 14 3.08733 14 3.49989V10.4999Z" fill="#DE2910"/>
<path d="M7.63262 3.57829C7.39773 3.45618 7.13134 3.39124 6.84123 3.45774C6.4889 3.53863 6.05917 3.90418 5.94212 4.32885C5.8869 4.52913 5.84062 4.70607 5.84334 4.86979C5.84528 4.98257 5.8449 5.17079 5.85851 5.35668C5.86784 5.48852 5.93356 5.77318 6.03778 6.02441L6.0444 6.02207C6.10156 6.21302 6.29056 6.50935 6.47567 6.75241C6.68801 7.03124 6.85406 7.15685 6.88751 7.15646C6.86332 7.14285 6.84195 7.12477 6.82451 7.10318C6.70317 6.95113 6.58184 6.67385 6.55695 6.48602C6.50873 6.11929 6.57095 5.85407 6.67245 5.53557C6.69773 5.45585 6.75023 5.43291 6.78484 5.45352C6.78756 5.45507 6.78912 5.45857 6.79184 5.46091C6.81323 5.48074 6.82645 5.51691 6.8074 5.58302C6.75878 5.75335 6.63978 6.18191 6.70317 6.48602C6.76151 6.76641 6.84473 6.93363 6.94312 7.05185C6.88856 6.93013 6.85906 6.79866 6.8564 6.66529C6.85484 6.57818 6.84745 6.49185 6.89101 6.41368C6.96412 6.28263 7.07067 6.21224 7.19395 6.14574C7.27912 6.09985 7.35923 6.03724 7.43273 5.99018C7.76717 5.77707 7.87956 5.35552 7.87023 5.18518L7.86206 5.05802C7.86906 5.01174 7.84806 4.88457 7.79245 4.75702C7.74859 4.66428 7.69488 4.57653 7.63223 4.49529C7.60539 4.45835 7.59023 4.41596 7.57545 4.38991C7.51828 4.29074 7.51828 4.17835 7.51906 4.10718C7.51945 4.02318 7.53034 4.01346 7.55445 3.97341C7.57351 3.94152 7.59412 3.89835 7.65867 3.86374C7.70612 3.83885 7.81306 3.84624 7.87606 3.87852C7.92973 3.90535 7.93984 3.90302 7.96745 3.91818C7.99234 3.93179 8.05728 3.96602 8.05339 3.95241C8.03823 3.90107 7.85001 3.69107 7.63262 3.57829ZM6.17895 7.41546C5.81301 7.3653 5.57306 7.23541 5.29229 7.05341C5.22267 7.00829 5.21373 6.95191 5.24173 6.92391L5.24406 6.92274C5.26701 6.90252 5.30862 6.89707 5.37317 6.93596C5.52523 7.02774 5.90712 7.25524 6.21706 7.27468C6.46945 7.29024 6.63978 7.26263 6.77317 7.21207C6.65714 7.22295 6.5401 7.21401 6.42706 7.18563C6.34267 7.16346 6.25751 7.14713 6.19373 7.08452C6.08756 6.97913 6.04828 6.85741 6.01717 6.72052C5.99578 6.62602 5.95728 6.53229 5.93162 6.44868C5.8169 6.06913 5.44123 5.84707 5.2744 5.81013L5.14995 5.78407C5.10717 5.76463 4.97884 5.75141 4.84117 5.76968C4.74003 5.78688 4.64105 5.81505 4.54601 5.85368C4.50284 5.87002 4.45851 5.87274 4.42934 5.88013C4.31812 5.90852 4.21001 5.87818 4.14195 5.85835C4.06106 5.83502 4.05445 5.82179 4.02256 5.78757C3.9969 5.76074 3.96073 5.73002 3.94479 5.65807C3.93351 5.60596 3.96967 5.50485 4.01751 5.45274C4.05795 5.40918 4.05834 5.39829 4.08012 5.37535C4.09995 5.35474 4.15051 5.30185 4.13612 5.30224C4.08323 5.30224 3.83045 5.42668 3.66362 5.60557C3.4824 5.79924 3.34784 6.03802 3.33384 6.33513C3.31712 6.69641 3.55317 7.20896 3.9304 7.43646C4.10773 7.54302 4.26601 7.63596 4.42467 7.67718C4.53395 7.70557 4.71479 7.75691 4.89756 7.79424C5.02706 7.82029 5.31873 7.83468 5.58862 7.80202V7.79463C5.78812 7.79113 6.12412 7.68885 6.40762 7.57685C6.76578 7.43452 6.94078 7.29063 6.91434 7.27741L6.90967 7.28129C6.90617 7.28518 6.89956 7.28635 6.89256 7.28752C6.8774 7.2988 6.86728 7.31085 6.84395 7.32096C6.66623 7.39718 6.3664 7.44152 6.17895 7.41546ZM7.1574 7.87085C7.13367 7.53485 7.06873 7.34274 7.0384 7.31124C7.04073 7.32135 7.0454 7.32602 7.04695 7.33768C7.07067 7.53057 7.02867 7.83041 6.9509 8.00346C6.79962 8.34063 6.60751 8.53391 6.35395 8.75285C6.31195 8.78863 6.27073 8.79913 6.24195 8.79135C6.23298 8.78945 6.22475 8.78498 6.21826 8.77849C6.21177 8.772 6.2073 8.76377 6.2054 8.7548C6.19956 8.7268 6.21473 8.68635 6.26373 8.64163C6.3944 8.52146 6.72067 8.21968 6.82645 7.92685C6.90812 7.70013 6.93106 7.53446 6.92367 7.39602C6.90025 7.51624 6.85504 7.63117 6.79028 7.73513C6.74401 7.80863 6.70278 7.88485 6.62345 7.92646C6.49084 7.99607 6.3629 7.99646 6.22328 7.98402C6.12723 7.97624 6.02573 7.9848 5.93823 7.98324C5.54156 7.9778 5.21645 8.26868 5.1309 8.41646L5.06829 8.5273C5.03679 8.56191 4.98545 8.68013 4.96173 8.81702C4.94345 8.92007 4.94734 9.0348 4.95201 9.12385C4.95434 9.16974 4.94345 9.21291 4.9419 9.24324C4.9349 9.35757 4.87345 9.45168 4.83379 9.5108C4.78712 9.58041 4.77273 9.58274 4.73073 9.60296C4.69767 9.61891 4.65684 9.64418 4.58334 9.63796C4.53045 9.63291 4.4449 9.56796 4.4099 9.50652C4.38034 9.4548 4.37023 9.4513 4.35506 9.4233C4.34145 9.39841 4.30645 9.33385 4.30217 9.34785C4.28623 9.39841 4.32823 9.67724 4.44801 9.88996C4.5779 10.1217 4.76495 10.3216 5.04417 10.4251C5.3829 10.5503 5.9429 10.4807 6.27384 10.1894C6.42978 10.0525 6.5659 9.92924 6.6534 9.79118C6.71367 9.69591 6.81712 9.53918 6.90812 9.37624C6.97228 9.26113 7.0734 8.98657 7.12434 8.7198L7.11773 8.71785C7.17412 8.52691 7.17878 8.17574 7.1574 7.87085Z" fill="white"/>
<path d="M9.52522 8.97102C9.45483 8.77541 9.39067 8.6043 9.29344 8.47208C9.22694 8.38108 9.11883 8.22747 9.00022 8.0828C8.91661 7.98091 8.69883 7.78647 8.46861 7.64102L8.46511 7.64647C8.30761 7.52397 7.9825 7.39097 7.69122 7.29919C7.38672 7.20352 7.18139 7.18836 7.12617 7.20119C7.15469 7.19819 7.18352 7.20097 7.21094 7.20936C7.39761 7.26419 7.65583 7.42286 7.78378 7.56247C8.03305 7.83586 8.133 8.08902 8.23294 8.40869C8.25822 8.48919 8.2275 8.53858 8.18628 8.53975C8.18511 8.53975 8.18511 8.54169 8.18394 8.54169C8.182 8.54169 8.18161 8.53936 8.18044 8.53858C8.15128 8.53586 8.11861 8.51369 8.09567 8.4468C8.03772 8.27919 7.89033 7.85997 7.66439 7.64608C7.45633 7.44969 7.29222 7.36025 7.14367 7.31902C7.11605 7.31163 7.10167 7.29958 7.08689 7.2883C7.08494 7.28986 7.083 7.28947 7.08105 7.2918L7.13667 7.32486C7.21405 7.36647 7.33811 7.46447 7.43067 7.59047C7.48161 7.66125 7.53761 7.72736 7.54733 7.81641C7.56328 7.96497 7.517 8.08397 7.45517 8.21036C7.41239 8.29708 7.38283 8.3943 7.34978 8.47519C7.19928 8.84191 7.35055 9.25102 7.45672 9.3848L7.53683 9.48397C7.55783 9.52597 7.64883 9.61736 7.76744 9.6893C7.8565 9.74414 7.965 9.78225 8.05017 9.81141C8.09333 9.8258 8.1295 9.85147 8.15711 9.8643C8.26094 9.91214 8.32589 10.0043 8.36633 10.063C8.41417 10.1319 8.41105 10.1462 8.41455 10.1929C8.41728 10.2295 8.42544 10.2765 8.39278 10.3422C8.36867 10.3897 8.27689 10.4457 8.20728 10.4562C8.14817 10.4644 8.14117 10.4725 8.10967 10.4764C8.08167 10.4799 8.00817 10.4889 8.02022 10.4982C8.06105 10.5316 8.336 10.5946 8.57789 10.5612C8.84117 10.5254 9.09589 10.4243 9.29422 10.203C9.53455 9.93197 9.67417 9.38519 9.52522 8.97102Z" fill="white"/>
<path d="M10.5042 5.86049C10.3113 5.55482 9.82481 5.26977 9.38498 5.29894C9.17887 5.31294 8.9957 5.32771 8.84248 5.3841C8.73631 5.42299 8.55859 5.48444 8.38748 5.55871C8.26614 5.61121 8.01959 5.76755 7.81659 5.94838L7.82087 5.95344C7.65909 6.07088 7.44131 6.34699 7.27331 6.60171C7.09637 6.86966 7.02831 7.0571 7.02637 7.11232C7.03181 7.09016 7.03687 7.0676 7.05476 7.03883C7.1582 6.87394 7.38065 6.6686 7.5502 6.58344C7.88076 6.41816 8.15142 6.38977 8.48587 6.38044C8.57026 6.3781 8.60915 6.42049 8.59981 6.46016C8.59773 6.46668 8.59443 6.47275 8.59009 6.47805C8.57414 6.50021 8.54498 6.51966 8.4847 6.52277C8.30815 6.53288 7.86442 6.56127 7.59764 6.72071C7.35187 6.8681 7.2212 7.00188 7.14148 7.13332C7.13016 7.15232 7.11459 7.16843 7.09598 7.18038C7.09676 7.18232 7.09598 7.18388 7.09753 7.18621L7.14498 7.14149C7.20603 7.07888 7.33476 6.98671 7.48098 6.93227C7.56265 6.90194 7.64198 6.86655 7.73065 6.88171C7.87803 6.90699 7.97992 6.98477 8.08337 7.07927C8.15531 7.14421 8.24048 7.19944 8.30853 7.2531C8.62042 7.49849 9.05559 7.46582 9.21348 7.40088L9.33092 7.35071C9.37642 7.34255 9.4892 7.27994 9.59187 7.18582C9.66848 7.11505 9.73537 7.0221 9.78592 6.94821C9.81198 6.9101 9.84659 6.88288 9.86681 6.85994C9.94148 6.77321 10.0476 6.73627 10.1149 6.71332C10.1943 6.68649 10.2071 6.69349 10.253 6.70321C10.2891 6.7106 10.3366 6.71527 10.3906 6.76505C10.4299 6.80121 10.4583 6.90505 10.4482 6.97505C10.44 7.03416 10.4466 7.0431 10.4412 7.07421C10.4365 7.10221 10.426 7.17494 10.4377 7.16638C10.4809 7.13605 10.6174 6.8891 10.652 6.64721C10.6893 6.38471 10.6629 6.1121 10.5042 5.86049Z" fill="white"/>
<path d="M6.91806 4.90723L6.77572 5.12189L6.53189 5.06473L6.52528 5.06317L6.68511 5.265L6.55522 5.47889L6.55172 5.48512L6.79322 5.39528L6.96161 5.5905L6.95033 5.33267L7.18133 5.23545L7.18794 5.23273L6.93944 5.16389L6.91806 4.90723ZM5.13733 6.48612L5.13656 6.47912L5.00356 6.69962L4.75 6.651L4.91839 6.84623L4.79783 7.06556L4.79433 7.07178L5.03194 6.97184L5.20306 7.15423L5.20811 7.15967L5.18633 6.903L5.41306 6.79645L5.41967 6.79334L5.16883 6.73462L5.13733 6.48612ZM9.16156 6.41145L8.9115 6.34806L8.88428 6.09178L8.747 6.30956L8.50161 6.25784L8.495 6.25628L8.6595 6.45462L8.53389 6.67162L8.53078 6.67784L8.76995 6.58217L8.93756 6.76845L8.94261 6.7735L8.92628 6.51645L9.15494 6.41456L9.16156 6.41145ZM6.11267 8.583L6.11189 8.57639L5.97967 8.79728L5.73389 8.75178L5.72689 8.75023L5.89606 8.94428L5.77706 9.16478L5.77356 9.171L6.01039 9.0695L6.18267 9.25112L6.18772 9.25656L6.16439 9.00028L6.39072 8.89178L6.39694 8.88867L6.14572 8.83189L6.11267 8.583ZM8.35928 8.38584L8.35889 8.37884L8.21383 8.59234L7.97078 8.53167L7.96378 8.53012L8.12128 8.73389L7.98867 8.94662L7.98517 8.95245L8.22744 8.86534L8.38806 9.05706L8.39272 9.06289L8.38572 8.80545L8.6175 8.71095L8.6245 8.70862L8.37717 8.63628L8.35928 8.38584Z" fill="#DE2910"/>
</svg>
