<svg width="15" height="11" viewBox="0 0 15 11" fill="none" xmlns="http://www.w3.org/2000/svg">
<path d="M0.451875 9.71875H14.5472C14.688 9.50969 14.7945 9.27227 14.8695 9.01562H0.128906C0.203906 9.27227 0.310312 9.50969 0.451172 9.71875" fill="#EC1C24"/>
<path d="M5.85938 1.98438H14.8702C14.7952 1.72773 14.6888 1.49031 14.5479 1.28125H5.85961V1.98438" fill="#E6E7E8"/>
<path d="M5.85938 2.6875H14.9918C14.9775 2.44933 14.9367 2.2135 14.8702 1.98438H5.85938V2.6875Z" fill="#EC1C24"/>
<path d="M14.9918 2.6875H5.85938V3.39062H15V2.92188C15 2.84266 14.9965 2.76484 14.9918 2.6875Z" fill="#E6E7E8"/>
<path d="M5.85938 3.39062H15V4.09375H5.85938V3.39062Z" fill="#EC1C24"/>
<path d="M5.85938 4.09375H15V4.79688H5.85938V4.09375Z" fill="#E6E7E8"/>
<path d="M5.85938 4.79688H15V5.5H5.85938V4.79688Z" fill="#EC1C24"/>
<path d="M5.85938 5.5H15V6.20312H5.85938V5.5Z" fill="#E6E7E8"/>
<path d="M0 6.20312V6.90625H15V6.20312H5.85938H0Z" fill="#EC1C24"/>
<path d="M0 6.90625H15V7.60938H0V6.90625Z" fill="#E6E7E8"/>
<path d="M0 8.07812C0 8.15734 0.00351563 8.23516 0.00820312 8.3125H14.9918C14.9965 8.23516 15 8.15734 15 8.07812V7.60938H0V8.07812Z" fill="#EC1C24"/>
<path d="M0.129453 9.01562H14.87C14.9363 8.78645 14.9771 8.55064 14.9916 8.3125H0.0078125C0.0222256 8.55065 0.0630221 8.78647 0.129453 9.01562Z" fill="#E6E7E8"/>
<path d="M14.5477 1.28125C14.1616 0.708672 13.5293 0.34375 12.6562 0.34375H5.85938V1.28125H14.5477Z" fill="#EC1C24"/>
<path d="M2.34355 10.6562H12.6561C13.5296 10.6562 14.1617 10.2913 14.5475 9.71875H0.452148C0.838164 10.2913 1.47027 10.6562 2.34355 10.6562Z" fill="#E6E7E8"/>
<path d="M2.34449 0.34375C1.47098 0.34375 0.838867 0.708672 0.453086 1.28125C0.312227 1.49031 0.20582 1.72773 0.13082 1.98438C0.0645018 2.21355 0.0237075 2.44936 0.00917969 2.6875C0.00449219 2.76484 0.000976562 2.84266 0.000976562 2.92188V6.20312H5.86035V0.34375H2.34473" fill="#2B3990"/>
<path fill-rule="evenodd" clip-rule="evenodd" d="M3.47916 4.23838C3.17002 4.72166 2.52479 5.02588 1.84932 4.82948C1.21369 4.64268 0.776115 4.02557 0.812678 3.36088C0.847834 2.69198 1.34893 2.12432 2.00143 2.00854C2.69283 1.88502 3.2476 2.25604 3.48479 2.6437C3.20424 2.36784 2.87682 2.24338 2.49479 2.28721C2.19502 2.3212 1.94401 2.45666 1.74807 2.68565C1.3644 3.13213 1.37893 3.80198 1.77971 4.22409C2.00893 4.46549 2.29182 4.59159 2.62604 4.59463C2.95908 4.59744 3.24244 4.47135 3.47916 4.23838Z" fill="#F9CB38"/>
<path fill-rule="evenodd" clip-rule="evenodd" d="M3.84293 3.80297C3.69387 3.88055 3.54574 3.95836 3.39691 4.03477C3.39504 4.03312 3.39434 4.03125 3.39246 4.02984C3.50332 3.90633 3.61324 3.78211 3.72434 3.65742C3.72378 3.65427 3.72284 3.6512 3.72152 3.64828C3.55559 3.65367 3.38754 3.6607 3.22066 3.66633C3.22066 3.66352 3.21949 3.66141 3.21879 3.65953C3.37113 3.59555 3.52465 3.52992 3.67746 3.46664C3.67746 3.46359 3.67746 3.46008 3.6784 3.45727C3.52371 3.39094 3.36855 3.32555 3.21387 3.25922C3.2148 3.25781 3.2148 3.25641 3.2148 3.25406C3.38355 3.26109 3.55184 3.26789 3.72082 3.27445C3.72152 3.27211 3.72363 3.26906 3.72504 3.26531L3.39762 2.89477C3.39855 2.89219 3.39996 2.89055 3.40137 2.8882C3.54902 2.96578 3.69762 3.04289 3.85559 3.12562L3.72176 2.63906C3.72387 2.63719 3.72527 2.63648 3.72738 2.63484C3.82629 2.76773 3.92566 2.89945 4.02504 3.03258H4.03512C4.06605 2.87109 4.09676 2.70984 4.12793 2.54883H4.1352C4.16496 2.71008 4.19613 2.87039 4.22895 3.04289L4.53691 2.63484C4.53851 2.63572 4.54015 2.6365 4.54184 2.63719C4.49754 2.79609 4.4523 2.95477 4.40871 3.11367C4.41035 3.11625 4.41293 3.11883 4.4141 3.12117C4.56176 3.04547 4.70941 2.96953 4.85637 2.89336C4.85801 2.89594 4.86059 2.89687 4.86199 2.89922C4.75348 3.0218 4.6452 3.14414 4.53668 3.26602C4.53668 3.26883 4.53832 3.27187 4.53832 3.27516C4.70449 3.2693 4.87043 3.26344 5.03613 3.25687C5.03707 3.25922 5.03777 3.26203 5.03848 3.26508C4.88613 3.32906 4.73379 3.39305 4.58238 3.4575C4.58121 3.46078 4.58121 3.46406 4.58121 3.46641C4.7373 3.5332 4.8927 3.59953 5.04855 3.66562C5.04762 3.66727 5.04762 3.66891 5.04691 3.67055C4.87816 3.66305 4.70871 3.65648 4.53926 3.64945C4.53832 3.6525 4.53668 3.65531 4.53504 3.65883C4.6452 3.78258 4.75488 3.9075 4.8648 4.03148C4.86394 4.03346 4.86246 4.0351 4.86059 4.03617L4.41551 3.80414L4.40684 3.80906C4.45066 3.96797 4.49402 4.12664 4.53832 4.28508C4.53668 4.28672 4.5341 4.28766 4.53246 4.28883L4.23434 3.89086C4.23105 3.89133 4.22895 3.89227 4.2252 3.89273C4.19379 4.05422 4.16262 4.21711 4.13191 4.37859C4.1291 4.3793 4.1277 4.3793 4.12605 4.3793C4.09512 4.21711 4.06418 4.05422 4.03418 3.89227C4.0309 3.89133 4.02762 3.89086 4.02504 3.88992L3.72457 4.28883C3.72176 4.28766 3.72012 4.28766 3.71895 4.28578C3.76301 4.12664 3.80754 3.96797 3.85277 3.80906C3.84942 3.80716 3.84613 3.80512 3.84293 3.80297Z" fill="#F9CB38"/>
</svg>
