<svg width="15" height="11" viewBox="0 0 15 11" fill="none" xmlns="http://www.w3.org/2000/svg">
<path d="M7.37483 5.5065L0.933594 10.561C1.28311 10.8375 1.72875 10.9995 2.27211 10.9995H12.2712C13.7772 10.9995 14.5437 9.76836 14.5437 8.24975V5.5H7.36619L7.37483 5.507" fill="#EC1C24"/>
<path d="M12.2717 0H2.2726C1.77242 0 1.3545 0.137987 1.01953 0.374966L7.36668 5.4995H14.5442V2.74975C14.5442 1.23114 13.7777 0 12.2717 0Z" fill="#1B75BB"/>
<path d="M7.3666 5.49953L1.01945 0.375C0.343832 0.851707 0 1.73538 0 2.74978V8.24928C0 9.21995 0.314744 10.0714 0.934006 10.5606L7.37524 5.50653L7.3666 5.49953Z" fill="#E6E7E8"/>
<path fill-rule="evenodd" clip-rule="evenodd" d="M4.61935 5.49493C4.60958 5.46044 4.52345 5.39594 4.48891 5.39819C4.26825 5.41319 4.0485 5.42944 3.82806 5.44419L3.82306 5.44494C3.82238 5.42519 3.82011 5.40569 3.81806 5.38619L3.82261 5.38594C3.95282 5.3672 4.08304 5.3492 4.21303 5.33045C4.29029 5.31895 4.36801 5.3067 4.44937 5.2942C4.41119 5.22171 4.36801 5.20196 4.29825 5.22021C4.13985 5.26171 3.97896 5.2917 3.81965 5.32845L3.81011 5.33045C3.7897 5.21511 3.7486 5.1054 3.68921 5.00773C3.69489 5.00298 3.70148 4.99798 3.70876 4.99273C3.84511 4.89524 3.98009 4.79425 4.11576 4.69451C4.1803 4.64726 4.18667 4.62626 4.16053 4.53752C3.99418 4.67801 3.82852 4.818 3.66262 4.95673C3.66095 4.95774 3.65954 4.95921 3.65853 4.96098L3.62535 4.91674C3.62717 4.91524 3.62854 4.91349 3.63058 4.91199C3.79261 4.754 3.95601 4.59702 4.11849 4.43928C4.15235 4.40678 4.17326 4.30854 4.15531 4.2663C4.15205 4.25893 4.1466 4.25302 4.13985 4.24955C4.10054 4.2298 4.01282 4.2528 3.98259 4.29029C3.8392 4.46953 3.69717 4.64951 3.55309 4.82775C3.5515 4.8295 3.55036 4.83149 3.54922 4.83324C3.53582 4.82075 3.52309 4.80875 3.50877 4.797C3.51036 4.79575 3.5115 4.79375 3.51286 4.79225C3.6299 4.62326 3.74671 4.45528 3.86442 4.28654C3.87465 4.27205 3.89078 4.26005 3.88919 4.23705C3.79284 4.22355 3.79284 4.22355 3.74375 4.30479C3.65103 4.45778 3.55809 4.61002 3.46605 4.76325C3.37742 4.69806 3.27794 4.65278 3.17335 4.63001L3.1738 4.62726C3.20698 4.44978 3.23448 4.27055 3.27311 4.09431C3.2897 4.01707 3.27357 3.96932 3.20516 3.92608C3.17721 4.15931 3.1504 4.38679 3.12222 4.61377L3.12199 4.62076C3.10472 4.61851 3.08768 4.61626 3.06995 4.61501C3.0704 4.61376 3.0704 4.61202 3.0704 4.61052C3.08427 4.36804 3.09858 4.12606 3.11199 3.88358C3.11449 3.84383 3.05768 3.75159 3.02473 3.73959C3.01939 3.73784 3.0137 3.73784 3.00836 3.73959C2.97291 3.75309 2.91792 3.84558 2.92065 3.89008C2.93451 4.12806 2.94951 4.36604 2.96337 4.60377C2.96337 4.60727 2.96405 4.61102 2.96496 4.61476C2.94674 4.61615 2.92855 4.61807 2.91042 4.62051L2.90996 4.61351C2.88451 4.40328 2.8602 4.19255 2.83543 3.98232C2.83315 3.96482 2.83724 3.94333 2.81838 3.93133C2.74498 3.99782 2.74521 3.99782 2.76225 4.08906C2.79407 4.26505 2.82452 4.44078 2.85747 4.61626C2.85861 4.62076 2.85906 4.62526 2.85997 4.62976C2.75339 4.65226 2.65431 4.69876 2.56727 4.763C2.56293 4.75627 2.55862 4.74952 2.55431 4.74275C2.46682 4.59402 2.37638 4.44753 2.28684 4.30029C2.23684 4.2178 2.23275 4.2163 2.14003 4.24205C2.15208 4.26055 2.16344 4.2783 2.17503 4.29529C2.29093 4.46253 2.40819 4.62951 2.52409 4.79775C2.51068 4.80975 2.49705 4.82175 2.48364 4.83474C2.4759 4.82478 2.46802 4.81495 2.46001 4.80525L2.04754 4.28704C2.0205 4.2528 1.92937 4.23105 1.89415 4.25005C1.88742 4.25386 1.88212 4.26014 1.87915 4.2678C1.86051 4.31379 1.88347 4.41053 1.91983 4.44578C2.08118 4.60152 2.24321 4.75725 2.40387 4.91374C2.40569 4.91499 2.40683 4.91624 2.40865 4.91724C2.39706 4.93149 2.38592 4.94648 2.37569 4.96148L2.37047 4.95673C2.21707 4.82875 2.0639 4.69901 1.91142 4.57052C1.89847 4.55927 1.88756 4.54002 1.86688 4.54377C1.84892 4.61601 1.86756 4.66401 1.92824 4.70526C2.07004 4.802 2.20639 4.90799 2.34524 5.00848C2.28707 5.10422 2.24525 5.21346 2.2248 5.33095C2.22321 5.33045 2.22185 5.33045 2.22071 5.3297C2.05754 5.29295 1.89369 5.25696 1.73053 5.22021C1.64985 5.20246 1.63235 5.21096 1.58895 5.2937C1.60349 5.29745 1.61645 5.3017 1.62985 5.3037C1.8212 5.33095 2.013 5.35795 2.20344 5.38619L2.21639 5.38644C2.21384 5.40568 2.2121 5.42503 2.21116 5.44444C2.20776 5.44369 2.2048 5.44294 2.20094 5.44294C1.983 5.42869 1.76416 5.41269 1.54622 5.39844C1.50918 5.39594 1.42533 5.45919 1.41487 5.49443C1.41366 5.50038 1.41381 5.50657 1.41533 5.51243C1.4276 5.55093 1.51282 5.61142 1.55259 5.60842C1.76848 5.59293 1.98459 5.57643 2.20139 5.56143C2.20457 5.56143 2.20753 5.56068 2.21094 5.55993C2.21207 5.57993 2.21389 5.59967 2.21616 5.61967L2.21026 5.62017C2.07368 5.64042 1.93778 5.65717 1.80143 5.67842C1.7303 5.68942 1.65781 5.69217 1.58622 5.71641C1.64849 5.80216 1.64849 5.80191 1.73621 5.78241C1.89415 5.74766 2.05209 5.71366 2.20935 5.67817C2.21439 5.67697 2.21947 5.67597 2.22457 5.67517C2.24496 5.79064 2.28632 5.9004 2.34615 5.99789C2.34411 5.99964 2.34206 6.00064 2.34002 6.00214C2.20139 6.10063 2.06731 6.20662 1.92642 6.30186C1.86483 6.34336 1.84983 6.39185 1.8671 6.4631C1.89142 6.46135 1.90324 6.4426 1.91824 6.42935C2.07004 6.30236 2.22184 6.17412 2.37274 6.04763L2.37569 6.04413C2.3866 6.05963 2.39706 6.07413 2.40865 6.08838L2.40615 6.09063C2.24184 6.25037 2.07731 6.40835 1.91278 6.56709C1.88233 6.59633 1.86142 6.70657 1.88051 6.74182C1.88463 6.74886 1.89093 6.75401 1.89824 6.75632C1.94437 6.77507 2.01982 6.75307 2.05368 6.71107C2.19685 6.53134 2.33933 6.35211 2.48341 6.17362C2.48341 6.17287 2.48409 6.17212 2.48478 6.17162C2.49727 6.18387 2.51091 6.19637 2.52432 6.20812L2.52159 6.21087C2.40683 6.37885 2.28957 6.54484 2.17412 6.71082C2.16208 6.72832 2.14072 6.74257 2.14481 6.76807C2.2173 6.79407 2.25866 6.75882 2.29547 6.69283C2.38251 6.54134 2.47637 6.3946 2.56545 6.24412L2.56727 6.24112C2.65431 6.30511 2.75339 6.35136 2.85997 6.37435C2.85906 6.37885 2.85861 6.3841 2.85747 6.3896C2.82429 6.56484 2.79361 6.74107 2.7618 6.91631C2.74452 7.01255 2.74748 7.0213 2.82815 7.07504L2.87224 6.70982C2.88519 6.60083 2.89747 6.49234 2.91087 6.3836C2.92883 6.3861 2.94655 6.3881 2.96405 6.3891C2.96382 6.4021 2.96223 6.4151 2.9611 6.42835C2.94746 6.65733 2.93383 6.88681 2.92065 7.11579C2.91769 7.15803 2.97655 7.25452 3.00996 7.26527C3.01536 7.26644 3.02094 7.26592 3.02609 7.26377C3.06472 7.24777 3.11449 7.15978 3.11176 7.11204C3.0979 6.87181 3.08358 6.63158 3.06995 6.39185V6.38885C3.08722 6.38785 3.10472 6.38585 3.12199 6.3836L3.12222 6.3876C3.13494 6.49409 3.14676 6.60008 3.15994 6.70632L3.20562 7.07729C3.28902 7.0123 3.28948 7.0098 3.27198 6.91506C3.23903 6.73707 3.20835 6.55934 3.17403 6.3816C3.17382 6.37914 3.17336 6.37671 3.17267 6.37435C3.2775 6.35181 3.37722 6.30661 3.46605 6.24137C3.46784 6.24362 3.46944 6.24604 3.47082 6.24862C3.55991 6.4016 3.65649 6.54909 3.74352 6.70333C3.78102 6.77057 3.82488 6.78757 3.88897 6.76782C3.8876 6.74157 3.87033 6.72782 3.85874 6.71082C3.74421 6.54559 3.62876 6.3811 3.51514 6.21562C3.51286 6.21262 3.51059 6.21037 3.50809 6.20787C3.52241 6.19587 3.53513 6.18362 3.54877 6.17112C3.55013 6.17362 3.55172 6.17587 3.55309 6.17737C3.69717 6.35586 3.83988 6.53559 3.98282 6.71457C4.01282 6.75157 4.10167 6.77457 4.14076 6.75457C4.1473 6.7508 4.1525 6.74473 4.15553 6.73732C4.17303 6.69408 4.15212 6.59733 4.11804 6.56459L3.62444 6.08838C3.63603 6.07363 3.64672 6.05963 3.65717 6.04438C3.65785 6.04438 3.65831 6.04438 3.65831 6.04488C3.77693 6.14388 3.89465 6.24512 4.0135 6.34336C4.06372 6.38485 4.1094 6.43335 4.1669 6.4656C4.18598 6.3861 4.16258 6.33761 4.10099 6.29611C3.96237 6.20237 3.82874 6.09763 3.69262 5.99964C3.69126 5.99864 3.69012 5.99714 3.68853 5.99639C3.74671 5.9004 3.7892 5.79166 3.80988 5.67417C3.81238 5.67417 3.81375 5.67492 3.81579 5.67517C3.97873 5.71216 4.14417 5.74241 4.30597 5.78591C4.37801 5.80566 4.4121 5.77291 4.44778 5.71417C4.43096 5.70942 4.41778 5.70417 4.40415 5.70217C4.21507 5.67467 4.026 5.64792 3.83715 5.61942C3.83147 5.61867 3.82443 5.61892 3.81806 5.61892C3.82034 5.59868 3.82261 5.57843 3.82374 5.55818C3.82846 5.5596 3.83324 5.56077 3.83806 5.56168C4.05281 5.57568 4.26689 5.59193 4.48118 5.60717C4.52186 5.61017 4.60617 5.55043 4.61913 5.51168C4.62053 5.50611 4.62045 5.50021 4.6189 5.49469" fill="#FAAA33"/>
<path d="M1.12607 1.75391L1.26901 2.07213L1.58784 2.12337L1.35718 2.37085L1.41149 2.72057L1.12607 2.55558L0.84041 2.72057L0.895178 2.37085L0.664062 2.12337L0.983124 2.07213L1.12607 1.75391Z" fill="#FAAA33"/>
<path d="M1.12607 8.0918L1.26901 8.40852L1.58784 8.45976L1.35718 8.70724L1.41149 9.05671L1.12607 8.89172L0.84041 9.05671L0.895178 8.70724L0.664062 8.45976L0.983124 8.40852L1.12607 8.0918Z" fill="#FAAA33"/>
<path d="M5.85579 4.89258L5.99873 5.21055L6.31779 5.26229L6.08667 5.50977L6.14076 5.85899L5.85579 5.69401L5.57013 5.85899L5.62467 5.50977L5.39355 5.26229L5.71353 5.21055L5.85579 4.89258Z" fill="#FAAA33"/>
</svg>
