<svg width="15" height="11" viewBox="0 0 15 11" fill="none" xmlns="http://www.w3.org/2000/svg">
<path d="M12.6562 10.8906H2.34375C0.790547 10.8906 0 9.73633 0 8.3125V5.73438H15V8.3125C15 9.73633 14.2095 10.8906 12.6562 10.8906Z" fill="#E6E7E8"/>
<path d="M0 3.15625C0 1.73242 0.790547 0.578125 2.34375 0.578125H12.6562C14.2095 0.578125 15 1.73242 15 3.15625V5.73438H0V3.15625Z" fill="#EC1C24"/>
<path d="M2.53773 3.18427C2.5377 2.71122 2.72056 2.25647 3.04809 1.91514C3.37561 1.57381 3.82243 1.37234 4.29508 1.35286C4.00264 1.25061 3.68997 1.21987 3.38322 1.26324C3.07647 1.30661 2.78456 1.42281 2.53193 1.60212C2.2793 1.78144 2.07329 2.01865 1.93113 2.29391C1.78898 2.56917 1.71481 2.87447 1.71484 3.18427C1.71478 3.43906 1.76491 3.69137 1.86238 3.92679C1.95984 4.1622 2.10272 4.37612 2.28287 4.5563C2.46301 4.73649 2.67689 4.87943 2.91228 4.97695C3.14767 5.07447 3.39997 5.12466 3.65477 5.12466C3.87906 5.12466 4.09492 5.08692 4.29508 5.01638C3.82231 4.99689 3.37539 4.79532 3.04785 4.45384C2.7203 4.11236 2.53751 3.65744 2.53773 3.18427Z" fill="white"/>
<path d="M5.1402 1.92617L4.77855 1.92664L4.66605 1.56055L4.55473 1.92664L4.19238 1.92617L4.48629 2.14906L4.37191 2.51281L4.66652 2.28687L4.96207 2.51281L4.84746 2.14906L5.1402 1.92617Z" fill="white"/>
<path d="M6.1734 2.69445H5.81176L5.69926 2.32812L5.58793 2.69445H5.22559L5.51902 2.91664L5.40512 3.28016L5.69973 3.05422L5.99457 3.28016L5.8809 2.91664L6.1734 2.69445Z" fill="white"/>
<path d="M5.78668 3.92248H5.42387L5.31254 3.55615L5.20121 3.92248H4.83887L5.1323 4.14514L5.0184 4.50842L5.31301 4.28248L5.60785 4.50842L5.49371 4.14514L5.78668 3.92248Z" fill="white"/>
<path d="M4.49082 3.92248H4.13012L4.01738 3.55615L3.90629 3.92248H3.54395L3.83738 4.14514L3.72371 4.50842L4.01738 4.28248L4.31293 4.50842L4.19902 4.14514L4.49082 3.92248Z" fill="white"/>
<path d="M4.10504 2.69445H3.7434L3.6309 2.32812L3.52051 2.69445H3.15723L3.45066 2.91664L3.33676 3.28016L3.63137 3.05422L3.92621 3.28016L3.8123 2.91664L4.10504 2.69445Z" fill="white"/>
</svg>
