<svg width="20" height="20" viewBox="0 0 20 20" fill="none" xmlns="http://www.w3.org/2000/svg">
<path d="M17.1875 19.25H2.0625C0.923398 19.25 0 18.3266 0 17.1875V2.0625C0 0.923398 0.923398 0 2.0625 0H17.1875C18.3266 0 19.25 0.923398 19.25 2.0625V17.1875C19.25 18.3266 18.3266 19.25 17.1875 19.25ZM8.3924 15.0365L16.2986 7.13028C16.5671 6.86181 16.5671 6.42649 16.2986 6.15802L15.3264 5.18577C15.0579 4.9173 14.6226 4.91726 14.3541 5.18577L7.90625 11.6336L4.8959 8.62323C4.62743 8.35476 4.19212 8.35476 3.92361 8.62323L2.95135 9.59548C2.68288 9.86395 2.68288 10.2993 2.95135 10.5677L7.4201 15.0365C7.68861 15.305 8.12389 15.305 8.3924 15.0365Z" fill="#0D9488"/>
</svg>
