<svg width="8" height="6" viewBox="0 0 8 6" fill="none" xmlns="http://www.w3.org/2000/svg">
<path d="M3.72659 5.52235C3.75717 5.56676 3.79809 5.60308 3.84582 5.62817C3.89355 5.65325 3.94667 5.66636 4.00059 5.66636C4.05451 5.66636 4.10763 5.65325 4.15536 5.62817C4.20309 5.60308 4.24401 5.56676 4.27459 5.52235L7.27459 1.18902C7.30931 1.13903 7.32968 1.08049 7.33347 1.01975C7.33726 0.959009 7.32433 0.89839 7.29608 0.84448C7.26784 0.790571 7.22536 0.745432 7.17327 0.713968C7.12117 0.682505 7.06145 0.66592 7.00059 0.666016H1.00059C0.93987 0.666267 0.880369 0.683065 0.828483 0.714604C0.776597 0.746142 0.73429 0.791229 0.706112 0.845014C0.677934 0.898799 0.664951 0.959248 0.668559 1.01986C0.672167 1.08047 0.69223 1.13895 0.726589 1.18902L3.72659 5.52235Z" fill="white"/>
</svg>
