<svg width="15" height="15" viewBox="0 0 15 15" fill="none" xmlns="http://www.w3.org/2000/svg">
<path d="M10.6684 2.83054L12.1687 4.33009L10.6684 2.83054ZM11.6332 1.5095L7.57656 5.56613C7.36695 5.77544 7.224 6.04212 7.16572 6.33254L6.79102 8.20821L8.66668 7.83279C8.9571 7.77471 9.22343 7.63234 9.4331 7.42267L13.4897 3.36604C13.6116 3.24414 13.7083 3.09942 13.7743 2.94015C13.8403 2.78088 13.8742 2.61017 13.8742 2.43777C13.8742 2.26538 13.8403 2.09467 13.7743 1.9354C13.7083 1.77612 13.6116 1.6314 13.4897 1.5095C13.3678 1.3876 13.2231 1.2909 13.0638 1.22493C12.9046 1.15896 12.7339 1.125 12.5615 1.125C12.3891 1.125 12.2184 1.15896 12.0591 1.22493C11.8998 1.2909 11.7551 1.3876 11.6332 1.5095V1.5095Z" stroke="#0D9488" stroke-width="2" stroke-linecap="round" stroke-linejoin="round"/>
<path d="M12.458 9.62435V11.7493C12.458 12.1251 12.3088 12.4854 12.0431 12.7511C11.7774 13.0168 11.4171 13.166 11.0413 13.166H3.24967C2.87395 13.166 2.51362 13.0168 2.24794 12.7511C1.98226 12.4854 1.83301 12.1251 1.83301 11.7493V3.95768C1.83301 3.58196 1.98226 3.22162 2.24794 2.95595C2.51362 2.69027 2.87395 2.54102 3.24967 2.54102H5.37467" stroke="#0D9488" stroke-width="2" stroke-linecap="round" stroke-linejoin="round"/>
</svg>
