<svg width="10" height="12" viewBox="0 0 10 12" fill="none" xmlns="http://www.w3.org/2000/svg">
<path d="M2.46 12.0002C2.14597 11.9983 1.83587 11.9302 1.55 11.8002C1.24083 11.6639 0.977413 11.4415 0.791223 11.1596C0.605032 10.8776 0.503933 10.548 0.5 10.2102V1.79019C0.503933 1.45234 0.605032 1.12276 0.791223 0.84081C0.977413 0.558864 1.24083 0.336471 1.55 0.200191C1.90574 0.0321586 2.30153 -0.0325605 2.69227 0.0134084C3.083 0.0593773 3.45297 0.214185 3.76 0.460191L8.86 4.67019C9.05999 4.82941 9.22151 5.03168 9.33252 5.26195C9.44353 5.49222 9.50118 5.74456 9.50118 6.00019C9.50118 6.25582 9.44353 6.50816 9.33252 6.73843C9.22151 6.9687 9.05999 7.17097 8.86 7.33019L3.76 11.5402C3.39238 11.8383 2.93331 12.0008 2.46 12.0002Z" fill="#0694A2"/>
</svg>
