<svg width="30" height="28" viewBox="0 0 30 28" fill="none" xmlns="http://www.w3.org/2000/svg">
<path d="M15.2242 0C23.1495 0 29.5742 6.26801 29.5742 14C29.5742 21.732 23.1495 28 15.2242 28C7.29893 28 0.874218 21.732 0.874218 14C0.874218 6.26801 7.29893 0 15.2242 0ZM14.2398 6.0669C10.4003 6.0669 7.28898 9.10411 7.28898 12.8499C7.28898 16.5956 10.4003 19.6311 14.2398 19.6311C15.4017 19.6311 16.4967 19.3538 17.4594 18.8621C17.4584 18.8664 17.4569 18.8714 17.4559 18.8757L20.5915 21.9331L23.1595 19.426L20.136 16.4746C20.131 16.4724 20.1252 16.4716 20.1202 16.4695C20.7992 15.422 21.1923 14.1808 21.1923 12.8499C21.1923 9.10408 18.0792 6.0669 14.2398 6.0669ZM14.2398 9.07984C16.3734 9.07984 18.104 10.7682 18.104 12.8499C18.104 14.9315 16.3734 16.6182 14.2398 16.6182C12.1061 16.6182 10.3772 14.9315 10.3772 12.8499C10.3772 10.7682 12.1061 9.07984 14.2398 9.07984Z" fill="#0694A2"/>
</svg>
