<svg width="20" height="12" viewBox="0 0 20 12" fill="none" xmlns="http://www.w3.org/2000/svg">
<path d="M13.2 12C14.3611 12 15.4973 11.6631 16.4707 11.0301C17.4441 10.3972 18.2129 9.49539 18.684 8.43413C19.155 7.37287 19.308 6.19773 19.1244 5.05123C18.9408 3.90474 18.4285 2.83614 17.6496 1.97505C16.8707 1.11396 15.8587 0.497362 14.7363 0.200043C13.6139 -0.097275 12.4294 -0.0625418 11.3263 0.300031C10.2233 0.662603 9.24914 1.33744 8.52204 2.24269C7.79493 3.14794 7.34611 4.24472 7.23 5.4H4.8C4.8 4.92261 4.61036 4.46477 4.27279 4.12721C3.93523 3.78964 3.47739 3.6 3 3.6H1.8C1.32261 3.6 0.864773 3.78964 0.527208 4.12721C0.189642 4.46477 0 4.92261 0 5.4L0 6.6C0 7.07739 0.189642 7.53523 0.527208 7.87279C0.864773 8.21036 1.32261 8.4 1.8 8.4H3C3.47739 8.4 3.93523 8.21036 4.27279 7.87279C4.61036 7.53523 4.8 7.07739 4.8 6.6H7.23C7.37874 8.07998 8.07191 9.45195 9.17503 10.4497C10.2781 11.4475 11.7126 12 13.2 12ZM13.8 3V5.4H16.2C16.3591 5.4 16.5117 5.46321 16.6243 5.57574C16.7368 5.68826 16.8 5.84087 16.8 6C16.8 6.15913 16.7368 6.31174 16.6243 6.42426C16.5117 6.53679 16.3591 6.6 16.2 6.6H13.8V9C13.8 9.15913 13.7368 9.31174 13.6243 9.42426C13.5117 9.53679 13.3591 9.6 13.2 9.6C13.0409 9.6 12.8883 9.53679 12.7757 9.42426C12.6632 9.31174 12.6 9.15913 12.6 9V6.6H10.2C10.0409 6.6 9.88826 6.53679 9.77574 6.42426C9.66321 6.31174 9.6 6.15913 9.6 6C9.6 5.84087 9.66321 5.68826 9.77574 5.57574C9.88826 5.46321 10.0409 5.4 10.2 5.4H12.6V3C12.6 2.84087 12.6632 2.68826 12.7757 2.57574C12.8883 2.46321 13.0409 2.4 13.2 2.4C13.3591 2.4 13.5117 2.46321 13.6243 2.57574C13.7368 2.68826 13.8 2.84087 13.8 3Z" fill="#0D9488"/>
</svg>
