<svg width="40" height="40" viewBox="0 0 40 40" fill="none" xmlns="http://www.w3.org/2000/svg">
<path fill-rule="evenodd" clip-rule="evenodd" d="M20 40C31.0457 40 40 31.0457 40 20C40 8.9543 31.0457 0 20 0C8.9543 0 0 8.9543 0 20C0 31.0457 8.9543 40 20 40Z" fill="#0D9488"/>
<rect width="24" height="24" transform="translate(9 8)" fill="#0D9488"/>
<path d="M24.5 12H16.5C14.2909 12 12.5 13.7909 12.5 16V24C12.5 26.2091 14.2909 28 16.5 28H24.5C26.7091 28 28.5 26.2091 28.5 24V16C28.5 13.7909 26.7091 12 24.5 12Z" stroke="#FEDF01" stroke-width="2" stroke-linecap="round" stroke-linejoin="round"/>
<path d="M20.5 23C22.1569 23 23.5 21.6569 23.5 20C23.5 18.3431 22.1569 17 20.5 17C18.8431 17 17.5 18.3431 17.5 20C17.5 21.6569 18.8431 23 20.5 23Z" stroke="#FEDF01" stroke-width="2" stroke-linecap="round" stroke-linejoin="round"/>
<path d="M25 15.5V15.501" stroke="#FEDF01" stroke-width="2" stroke-linecap="round" stroke-linejoin="round"/>
</svg>
