<svg width="40" height="40" viewBox="0 0 40 40" fill="none" xmlns="http://www.w3.org/2000/svg">
<path fill-rule="evenodd" clip-rule="evenodd" d="M20 40C31.0457 40 40 31.0457 40 20C40 8.9543 31.0457 0 20 0C8.9543 0 0 8.9543 0 20C0 31.0457 8.9543 40 20 40Z" fill="#55ACEE"/>
<path d="M18.1368 27C24.3002 27 27.6714 21.6132 27.6714 16.9423C27.6714 16.7889 27.6714 16.6365 27.6616 16.4848C28.3174 15.9852 28.8834 15.3649 29.3333 14.6551C28.7225 14.9411 28.0732 15.1289 27.4093 15.2116C28.1083 14.7696 28.6318 14.0753 28.8825 13.256C28.2243 13.6678 27.5048 13.9581 26.7543 14.1141C25.4852 12.6909 23.3627 12.622 22.0127 13.9607C21.143 14.8239 20.773 16.111 21.0434 17.3386C18.3492 17.1956 15.8387 15.8534 14.1368 13.6454C13.2474 15.2607 13.7023 17.3265 15.1748 18.3637C14.6415 18.3473 14.1197 18.1957 13.6533 17.9218V17.9666C13.6542 19.649 14.7787 21.098 16.3418 21.4314C15.8485 21.5736 15.3308 21.5942 14.8293 21.4917C15.2679 22.9321 16.5264 23.9185 17.9596 23.9469C16.773 24.9307 15.3071 25.4649 13.7979 25.4631C13.5317 25.4623 13.2654 25.4459 13 25.4123C14.5329 26.4495 16.3157 27 18.1368 26.9974" fill="white"/>
</svg>
